<svg width="20" height="21" viewBox="0 0 20 21" fill="none" xmlns="http://www.w3.org/2000/svg">
<path d="M11.1621 5.51694C10.7806 5.47567 10.393 5.45202 10 5.44614C8.28292 5.45376 6.50295 5.87142 4.81812 6.67174C3.56715 7.29044 2.34857 8.16389 1.29028 9.24131C0.770533 9.79131 0.107183 10.5877 0 11.4373C0.0126667 12.1734 0.80255 13.0818 1.29028 13.6334C2.28267 14.6685 3.46952 15.517 4.81812 16.203C4.86396 16.2252 4.90994 16.2472 4.95605 16.2689L3.70485 18.4539L5.40493 19.4587L14.5952 3.45814L12.9588 2.45801L11.1621 5.51694ZM15.0427 6.60826L13.7939 8.77254C14.3684 9.51891 14.7095 10.4393 14.7095 11.4373C14.7095 13.925 12.6008 15.9417 9.99877 15.9417C9.88628 15.9417 9.77727 15.9296 9.66673 15.9222L8.84032 17.3529C9.22145 17.3937 9.60682 17.4234 9.99998 17.4286C11.7187 17.4208 13.4977 16.9984 15.1807 16.203C16.4316 15.5843 17.6514 14.7108 18.7097 13.6334C19.2295 13.0834 19.8928 12.287 20 11.4373C19.9873 10.7013 19.1974 9.79286 18.7097 9.24129C17.7173 8.20619 16.5293 7.35774 15.1807 6.67171C15.1351 6.64964 15.0885 6.62979 15.0427 6.60826ZM9.99878 6.93297C10.1129 6.93297 10.2261 6.93754 10.3381 6.94517L9.37012 8.62119C8.01155 8.89662 6.99218 10.0525 6.99218 11.4361C6.99218 11.7837 7.0562 12.1165 7.17407 12.4249C7.1742 12.4252 7.17393 12.4258 7.17407 12.4261L6.2036 14.107C5.62775 13.36 5.28807 12.4365 5.28807 11.4373C5.28808 8.94974 7.3968 6.93296 9.99878 6.93297ZM12.8149 10.4669L10.6336 14.2462C11.9848 13.9656 12.9968 12.8149 12.9968 11.4361C12.9968 11.0949 12.9287 10.7705 12.8149 10.4669Z" fill="#808080"/>
</svg>
